#!OML:ASF F:\VICON\USERDATA\INSTALL\rory3\rory3.ASF
:FULLY-SPECIFIED
:DEGREES
648
root 3.40004 17.9171 6.72219 -181.921 48.7828 -180.901
lowerback 12.8427 2.93473 -1.67065
upperback 0.926961 3.71623 -0.325721
thorax -6.30273 1.89493 -0.0783446
lowerneck -19.588 -3.87946 -9.73403
upperneck 36.3438 -1.24588 2.82883
head 16.5398 -0.841912 2.89788
rclavicle -5.30507e-015 8.29926e-015
rhumerus -40.8373 31.3349 -99.1132
rradius 92.0154
rwrist -16.6688
rhand -17.9329 2.10763
rfingers 7.12502
rthumb 8.33505 -27.7079
lclavicle -5.30507e-015 8.29926e-015
lhumerus -40.8361 -36.3643 103.309
lradius 87.8481
lwrist 14.5918
lhand -17.7553 30.8271
lfingers 7.12502
lthumb 8.50653 60.6358
rfemur -7.2625 -6.85405 12.97
rtibia 60.8418
rfoot 9.74085 -13.6998
rtoes 19.9975
lfemur -14.611 5.06023 -25.8577
ltibia 21.8214
lfoot -3.46031 -2.94566
ltoes 5.28039
649
root 3.46902 17.9177 6.62936 -182.104 48.4395 -181.003
lowerback 12.9529 2.85847 -1.84347
upperback 0.917714 3.59041 -0.290618
thorax -6.38489 1.83881 0.0720633
lowerneck -19.5098 -3.89152 -9.79001
upperneck 36.4821 -1.23727 2.87464
head 16.594 -0.834263 2.93689
rclavicle -1.84808e-014 -8.99501e-015
rhumerus -40.7727 31.2419 -98.9951
rradius 91.9562
rwrist -16.3336
rhand -17.8925 2.13643
rfingers 7.12502
rthumb 8.37408 -27.6776
lclavicle -1.84808e-014 -8.99501e-015
lhumerus -40.6936 -36.7025 103.265
lradius 87.7368
lwrist 14.5193
lhand -17.4147 30.5382
lfingers 7.12502
lthumb 8.83522 60.3332
rfemur -8.30224 -6.88442 12.9091
rtibia 62.2934
rfoot 8.71355 -13.0275
rtoes 17.484
lfemur -14.0255 4.86057 -26.033
ltibia 21.8078
lfoot -3.93867 -2.94845
ltoes 4.50294
650
root 3.53804 17.9167 6.53748 -182.371 48.1739 -181.209
lowerback 13.0319 2.78583 -2.12589
upperback 0.932333 3.45582 -0.239002
thorax -6.43081 1.78212 0.30582
lowerneck -19.3849 -3.83464 -9.73165
upperneck 36.4967 -1.08561 2.66224
head 16.5573 -0.789344 2.86277
rclavicle 2.8625e-014 -1.48592e-014
rhumerus -40.7212 31.1629 -98.8603
rradius 91.8441
rwrist -16.0196
rhand -17.6928 2.36876
rfingers 7.12502
rthumb 8.56683 -27.4374
lclavicle 2.8625e-014 -1.48592e-014
lhumerus -40.4457 -36.8885 103.107
lradius 87.6505
lwrist 14.4353
lhand -17.2029 30.6853
lfingers 7.12502
lthumb 9.03956 60.4716
rfemur -9.31912 -6.84422 12.7666
rtibia 63.5869
rfoot 7.72745 -12.3004
rtoes 16.2328
lfemur -13.4438 4.75788 -26.2853
ltibia 21.798
lfoot -4.3668 -2.91756
ltoes 3.37045
651
root 3.60374 17.9152 6.44579 -182.591 47.8332 -181.399
lowerback 13.0328 2.68339 -2.31458
upperback 0.978632 3.29718 -0.20766
thorax -6.39052 1.71087 0.475555
lowerneck -19.2707 -3.83819 -9.72602
upperneck 36.503 -1.00261 2.43875
head 16.5274 -0.782799 2.77893
rclavicle 5.33488e-014 -9.81499e-015
rhumerus -40.5232 31.1139 -98.6511
rradius 91.7175
rwrist -15.6817
rhand -17.4369 2.57298
rfingers 7.12502
rthumb 8.81372 -27.223
lclavicle 5.33488e-014 -9.81499e-015
lhumerus -40.1002 -37.1858 102.916
lradius 87.5009
lwrist 14.5267
lhand -17.4452 30.8269
lfingers 7.12502
lthumb 8.8057 60.6232
rfemur -10.3452 -6.90801 12.6225
rtibia 64.7182
rfoot 6.828 -11.4645
rtoes 15.7563
lfemur -12.9656 4.80065 -26.5474
ltibia 21.8351
lfoot -4.83675 -3.09344
ltoes 2.44175
652
root 3.66772 17.9148 6.35023 -182.625 47.4681 -181.352
lowerback 12.9577 2.52917 -2.24092
upperback 1.05257 3.11003 -0.191135
thorax -6.2614 1.61788 0.492171
lowerneck -19.2311 -3.87394 -9.73712
upperneck 36.5937 -1.02304 2.40099
head 16.5678 -0.796188 2.76404
rclavicle -8.92295e-014 2.25621e-014
rhumerus -40.2315 31.1037 -98.5403
rradius 91.527
rwrist -15.253
rhand -17.1215 2.81533
rfingers 7.12502
rthumb 9.11807 -26.9676
lclavicle -8.92295e-014 2.25621e-014
lhumerus -39.7133 -37.4549 102.658
lradius 87.3064
lwrist 14.5625
lhand -17.8711 30.8796
lfingers 7.12502
lthumb 8.39477 60.6928
rfemur -11.338 -6.91428 12.6834
rtibia 65.643
rfoot 6.16267 -10.6092
rtoes 15.4909
lfemur -12.499 4.6665 -26.6355
ltibia 21.9198
lfoot -5.31767 -3.13986
ltoes 1.97732
653
root 3.73413 17.9152 6.25614 -182.598 47.2242 -181.223
lowerback 12.9132 2.42221 -2.16424
upperback 1.11093 2.98572 -0.149595
thorax -6.16931 1.55578 0.519341
lowerneck -19.1087 -3.8529 -9.73351
upperneck 36.6142 -1.00549 2.4304
head 16.5468 -0.7805 2.78135
rclavicle -5.66738e-014 -3.13086e-015
rhumerus -39.9824 31.1345 -98.4668
rradius 91.3222
rwrist -14.953
rhand -17.0012 2.94794
rfingers 7.12502
rthumb 9.23417 -26.8299
lclavicle -5.66738e-014 -3.13086e-015
lhumerus -39.3217 -37.6838 102.381
lradius 87.0837
lwrist 14.1405
lhand -17.5608 30.9643
lfingers 7.12502
lthumb 8.69419 60.7653
rfemur -12.3221 -6.78425 12.8452
rtibia 66.3826
rfoot 5.66678 -9.80232
rtoes 14.3967
lfemur -12.0426 4.44586 -26.6427
ltibia 22.0601
lfoot -5.78203 -2.99726
ltoes 1.8561
654
root 3.80079 17.913 6.16561 -182.746 47.0566 -181.302
lowerback 12.9204 2.37863 -2.31048
upperback 1.16794 2.91372 -0.0893828
thorax -6.12119 1.52558 0.679122
lowerneck -18.9341 -3.77709 -9.68713
upperneck 36.5585 -0.870564 2.3074
head 16.4633 -0.730599 2.74313
rclavicle 1.64075e-015 1.06723e-014
rhumerus -39.7965 31.1181 -98.2913
rradius 91.1759
rwrist -14.6728
rhand -17.0134 3.02843
rfingers 7.12502
rthumb 9.22238 -26.7499
lclavicle 1.64075e-015 1.06723e-014
lhumerus -38.916 -37.9772 102.149
lradius 86.854
lwrist 13.6219
lhand -16.9809 31.1041
lfingers 7.12502
lthumb 9.25375 60.881
rfemur -13.3036 -6.62011 12.8578
rtibia 67.0129
rfoot 5.08313 -8.79607
rtoes 11.6424
lfemur -11.6286 4.38774 -26.7893
ltibia 22.2803
lfoot -6.25239 -2.95732
ltoes 0.410845
655
root 3.86315 17.9108 6.06874 -182.689 46.2162 -181.176
lowerback 12.8372 2.09014 -2.11089
upperback 1.24533 2.56829 -0.0472028
thorax -5.97459 1.35207 0.679405
lowerneck -18.9856 -3.79256 -9.66542
upperneck 36.6818 -0.835198 2.21359
head 16.5378 -0.724874 2.70993
rclavicle 5.24194e-014 -2.49723e-015
rhumerus -39.5161 30.9812 -98.1028
rradius 91.006
rwrist -14.2844
rhand -17.2018 2.98791
rfingers 7.12502
rthumb 9.04059 -26.7984
lclavicle 5.24194e-014 -2.49723e-015
lhumerus -38.4366 -38.3743 101.893
lradius 86.6032
lwrist 13.2834
lhand -16.5557 31.0368
lfingers 7.12502
lthumb 9.66406 60.7951
rfemur -14.1183 -7.05482 12.9799
rtibia 67.4874
rfoot 4.17913 -8.05115
rtoes 10.4524
lfemur -11.2995 3.83541 -26.8295
ltibia 22.535
lfoot -6.66057 -3.12863
ltoes -1.7438
656
root 3.93006 17.9041 5.97862 -182.557 45.7518 -180.953
lowerback 12.7839 1.93786 -1.9918
upperback 1.27504 2.39151 0.051907
thorax -5.90747 1.26351 0.750939
lowerneck -19.0467 -3.85767 -9.70536
upperneck 36.889 -0.83939 2.12855
head 16.6646 -0.742149 2.68708
rclavicle -3.99122e-015 2.05245e-014
rhumerus -39.3402 30.8917 -97.9649
rradius 90.8448
rwrist -13.9943
rhand -17.4043 3.02545
rfingers 7.12502
rthumb 8.84518 -26.7692
lclavicle -3.99122e-015 2.05245e-014
lhumerus -38.1548 -38.5827 101.842
lradius 86.4247
lwrist 13.0722
lhand -16.2736 30.9759
lfingers 7.12502
lthumb 9.93623 60.7214
rfemur -15.0095 -7.15931 13.2401
rtibia 67.8531
rfoot 3.27864 -7.48352
rtoes 10.2927
lfemur -10.9707 3.41525 -26.7363
ltibia 22.7798
lfoot -7.08701 -3.04265
ltoes -2.5837
